<?xml version="1.0" encoding="UTF-8" standalone="no"?>
<svg
   xmlns:dc="http://purl.org/dc/elements/1.1/"
   xmlns:cc="http://creativecommons.org/ns#"
   xmlns:rdf="http://www.w3.org/1999/02/22-rdf-syntax-ns#"
   xmlns:svg="http://www.w3.org/2000/svg"
   xmlns="http://www.w3.org/2000/svg"
   xmlns:sodipodi="http://sodipodi.sourceforge.net/DTD/sodipodi-0.dtd"
   xmlns:inkscape="http://www.inkscape.org/namespaces/inkscape"
   width="200"
   height="200"
   viewBox="0 0 52.91667 52.916667"
   version="1.1"
   id="svg8"
   inkscape:version="1.0.2 (e86c870879, 2021-01-15, custom)"
   sodipodi:docname="bg-citadel.svg">
  <defs
     id="defs2" />
  <sodipodi:namedview
     id="base"
     pagecolor="#ffffff"
     bordercolor="#666666"
     borderopacity="1.0"
     inkscape:pageopacity="0.0"
     inkscape:pageshadow="2"
     inkscape:zoom="2"
     inkscape:cx="67.044389"
     inkscape:cy="180.30559"
     inkscape:document-units="mm"
     inkscape:current-layer="layer1"
     inkscape:document-rotation="0"
     showgrid="false"
     units="px"
     inkscape:snap-page="true"
     inkscape:window-width="1725"
     inkscape:window-height="1040"
     inkscape:window-x="26"
     inkscape:window-y="0"
     inkscape:window-maximized="0"
     showguides="true"
     inkscape:guide-bbox="true"
     inkscape:snap-object-midpoints="true"
     inkscape:snap-nodes="true"
     inkscape:snap-others="false"
     inkscape:object-nodes="false">
    <sodipodi:guide
       position="11.773958,52.916666"
       orientation="0,-1"
       id="guide857" />
    <sodipodi:guide
       position="52.916666,29.633333"
       orientation="1,0"
       id="guide859" />
    <sodipodi:guide
       position="0,52.916666"
       orientation="100,0"
       id="guide865" />
    <sodipodi:guide
       position="0,26.458332"
       orientation="0,100"
       id="guide867" />
    <sodipodi:guide
       position="26.458334,26.458332"
       orientation="-100,0"
       id="guide869" />
    <sodipodi:guide
       position="26.458334,52.916666"
       orientation="0,-100"
       id="guide871" />
    <sodipodi:guide
       position="26.458334,52.916666"
       orientation="50.000001,0"
       id="guide895" />
    <sodipodi:guide
       position="26.458334,39.687499"
       orientation="0,49.999998"
       id="guide897" />
    <sodipodi:guide
       position="39.6875,39.687499"
       orientation="-50.000001,0"
       id="guide899" />
    <sodipodi:guide
       position="39.6875,52.916666"
       orientation="0,-49.999998"
       id="guide901" />
    <sodipodi:guide
       position="0,13.229166"
       orientation="0,50.000001"
       id="guide905" />
    <sodipodi:guide
       position="13.229167,13.229166"
       orientation="-49.999998,0"
       id="guide907" />
    <sodipodi:guide
       position="13.229167,26.458332"
       orientation="0,-50.000001"
       id="guide909" />
    <sodipodi:guide
       position="20.112033,0"
       orientation="0,-1"
       id="guide1009" />
    <sodipodi:guide
       position="0,46.169792"
       orientation="1,0"
       id="guide1160" />
  </sodipodi:namedview>
  <metadata
     id="metadata5">
    <rdf:RDF>
      <cc:Work
         rdf:about="">
        <dc:format>image/svg+xml</dc:format>
        <dc:type
           rdf:resource="http://purl.org/dc/dcmitype/StillImage" />
        <dc:title></dc:title>
      </cc:Work>
    </rdf:RDF>
  </metadata>
  <g
     inkscape:label="Layer 1"
     inkscape:groupmode="layer"
     id="layer1">
    <path
       id="path1040-5"
       style="fill:#0c0c0c;fill-opacity:1;stroke-width:0.135422"
       d="m 29.667969,0 c -1.165775,3.3226667 -1.754285,6.9456747 -1.828125,10.542969 5.081023,2.369476 8.414925,5.39173 10.232422,8.751953 1.75127,3.23712 2.061469,6.734326 1.371093,10.033203 1.045452,0.678055 2.183788,1.238328 3.382813,1.683594 l 0.751953,-6.486328 2.513672,0.291015 -0.802735,6.927735 c 1.295985,0.299263 2.631286,0.477853 3.976563,0.539062 v -7.402344 h 2.53125 v 7.378907 c 1.341078,-0.0864 2.669482,-0.288377 3.949219,-0.607422 l -0.792969,-6.835938 2.513672,-0.291015 0.736328,6.345703 c 1.184538,-0.463416 2.302426,-1.035272 3.318359,-1.71875 -0.779758,-3.306051 -0.509988,-6.726464 1.220704,-9.884766 1.7984,-3.281817 5.106794,-6.230167 10.128906,-8.707031 C 72.802828,6.8683709 72.237222,3.2662059 71.126953,0 H 62.691406 C 59.368496,0.70727598 56.011257,1.1065863 52.642578,1.203125 L 50.644531,3.984375 48.628906,1.1796875 C 45.314682,1.0511551 42.000234,0.6436603 38.708984,0 Z M 93.875,0 100,9.734375 106.125,0 Z m 35.79297,0 c -1.16578,3.3226667 -1.75428,6.9456747 -1.82813,10.542969 5.08103,2.369476 8.41493,5.39173 10.23243,8.751953 1.75127,3.23712 2.06147,6.734326 1.37109,10.033203 1.04545,0.678055 2.18379,1.238328 3.38281,1.683594 l 0.75195,-6.486328 2.51368,0.291015 -0.80274,6.927735 c 1.29599,0.299263 2.6313,0.477853 3.97656,0.539062 v -7.402344 h 2.53126 v 7.378907 c 1.34106,-0.0864 2.66948,-0.288377 3.94921,-0.607422 l -0.79297,-6.835938 2.51368,-0.291015 0.73632,6.345703 c 1.18454,-0.463416 2.30243,-1.035272 3.31836,-1.71875 -0.77975,-3.306051 -0.50998,-6.726464 1.22071,-9.884766 1.7984,-3.281817 5.10679,-6.230167 10.1289,-8.707031 C 172.80283,6.8683709 172.23722,3.2662059 171.12695,0 h -8.43554 c -3.32291,0.70727598 -6.68015,1.1065863 -10.04883,1.203125 l -1.99805,2.78125 -2.01562,-2.8046875 C 145.31468,1.0511551 142.00023,0.6436603 138.70898,0 Z M 34.162109,4.1660156 c 4.685864,0.030992 9.262329,1.6566185 13.72461,4.9921875 -6.311195,4.4888239 -17.576174,4.6555789 -14.664063,-4.9765625 0.313512,-0.012094 0.627034,-0.017893 0.939453,-0.015625 z m 32.882813,0 c 0.312416,-0.00208 0.626225,0.00391 0.939453,0.015625 2.912383,9.6322774 -8.354821,9.4652504 -14.666016,4.9765625 4.462148,-3.3354367 9.040701,-4.9611765 13.726563,-4.9921875 z m 67.117188,0 c 4.68586,0.030992 9.26233,1.6566185 13.72461,4.9921875 -6.3112,4.4888239 -17.57617,4.6555789 -14.66406,-4.9765625 0.31351,-0.012094 0.62703,-0.017893 0.93945,-0.015625 z m 32.88281,0 c 0.31242,-0.00208 0.62623,0.00391 0.93946,0.015625 2.91237,9.6322774 -8.35483,9.4652504 -14.66602,4.9765625 4.46215,-3.3354367 9.0407,-4.9611765 13.72656,-4.9921875 z M 50.408203,10.931641 c 1.593914,2.942041 2.599451,5.884003 3.435547,8.826171 h -6.871094 c 0.618875,-2.942168 1.864651,-5.883454 3.435547,-8.826171 z m 99.999997,0 c 1.59392,2.942041 2.59945,5.884003 3.43555,8.826171 h -6.87109 c 0.61887,-2.942168 1.86465,-5.883454 3.43554,-8.826171 z m -72.041012,6.785156 -0.02148,21.171875 c 0.414932,0.06867 0.840573,0.18859 1.271485,0.357422 4.942351,1.937348 10.049809,3.037807 15.148437,3.449218 l 5.87891,-8.18164 5.73047,7.976562 c 4.9846,-0.558886 9.82639,-1.692451 14.34961,-3.261718 0.50837,-0.176315 0.99763,-0.296634 1.46484,-0.353516 L 122.39648,17.716797 112.12891,30.65625 107.51172,17.716797 100.23633,31.765625 92.962891,17.716797 88.162109,30.65625 78.369141,17.716797 Z M 100.64453,38.851562 96.765625,44.25 100.64453,49.646484 104.52148,44.25 Z m -23.041014,2.5 c -0.294274,-0.01096 -0.519021,0.03737 -0.677735,0.103516 -0.317556,0.132284 -0.430865,0.29476 -0.474609,0.566406 -0.08734,0.543043 0.382945,1.943276 3.11914,2.892578 5.647087,1.959285 11.410381,3.216988 17.167969,3.634766 l -2.402343,-3.345703 c -5.250705,-0.444858 -10.522283,-1.594478 -15.642579,-3.601563 -0.432941,-0.169661 -0.795573,-0.23919 -1.089843,-0.25 z m 45.132814,0.02539 c -0.29197,0.0072 -0.68329,0.06909 -1.18164,0.242188 -4.54773,1.577661 -9.41031,2.737834 -14.42578,3.33789 l -2.60938,3.63086 c 5.4747,-0.352366 10.89388,-1.527925 16.14649,-3.650391 2.15496,-0.870762 2.90612,-2.410903 2.89257,-3.027344 -0.007,-0.30822 -0.0387,-0.34748 -0.23828,-0.443359 -0.0999,-0.04781 -0.29199,-0.09687 -0.58398,-0.08984 z m -2.45313,6.423829 c -5.75542,2.149142 -11.68179,3.231577 -17.64062,3.402344 l -1.99805,2.78125 -2.015624,-2.804687 c -6.091948,-0.236259 -12.18441,-1.384811 -18.132812,-3.291016 -1.730691,3.860878 -2.566464,8.280178 -2.65625,12.654297 5.081023,2.369476 8.414926,5.39173 10.232422,8.751953 1.75127,3.23712 2.061469,6.734326 1.371093,10.033203 1.045452,0.678055 2.183788,1.238328 3.382813,1.683594 l 0.751953,-6.486328 2.513672,0.291015 -0.802735,6.927735 c 1.295985,0.299263 2.631286,0.477853 3.976563,0.539062 v -7.402344 h 2.531255 v 7.378907 c 1.34106,-0.0864 2.66948,-0.288377 3.94921,-0.607422 l -0.79297,-6.835938 2.51368,-0.291015 0.73632,6.345703 c 1.18454,-0.463416 2.30243,-1.035272 3.31836,-1.71875 -0.77975,-3.306051 -0.50998,-6.726464 1.22071,-9.884766 1.7984,-3.281817 5.10679,-6.230167 10.1289,-8.707031 -0.0839,-4.540146 -0.90513,-8.953332 -2.58789,-12.759766 z m 57.55664,12.742187 c -118.559893,-40.361979 -59.27995,-20.180989 0,0 z M 84.162109,54.166016 c 4.685862,0.03099 9.262329,1.656618 13.72461,4.992187 -6.311195,4.488824 -17.576174,4.655579 -14.664063,-4.976562 0.313512,-0.0121 0.627034,-0.01789 0.939453,-0.01563 z m 32.882811,0 c 0.31242,-0.0022 0.62623,0.0039 0.93946,0.01563 2.91237,9.632277 -8.35483,9.46525 -14.66602,4.976562 4.46215,-3.335437 9.0407,-4.961176 13.72656,-4.992187 z m -16.63672,6.765625 c 1.59392,2.942041 2.59945,5.884003 3.43555,8.826171 h -6.871094 c 0.618875,-2.942168 1.864654,-5.883454 3.435544,-8.826171 z m -72.041012,6.785156 -0.02148,21.171875 c 0.414932,0.06867 0.840573,0.18859 1.271485,0.357422 4.94235,1.937348 10.049809,3.037807 15.148437,3.449218 l 5.878906,-8.18164 5.730469,7.976562 c 4.984603,-0.558886 9.826388,-1.692451 14.349609,-3.261718 0.508373,-0.176315 0.997634,-0.296634 1.464844,-0.353516 L 72.396484,67.716797 62.128906,80.65625 57.511719,67.716797 50.236328,81.765625 42.962891,67.716797 38.162109,80.65625 28.369141,67.716797 Z m 100.000002,0 -0.0215,21.171875 c 0.41493,0.06867 0.84058,0.18859 1.27149,0.357422 4.94235,1.937348 10.04982,3.037807 15.14843,3.449218 l 5.87891,-8.18164 5.73047,7.976562 c 4.9846,-0.558886 9.82639,-1.692451 14.34961,-3.261718 0.50837,-0.176315 0.99763,-0.296634 1.46484,-0.353516 L 172.39647,67.716797 162.1289,80.65625 157.51171,67.716797 150.23632,81.765625 142.96288,67.716797 138.1621,80.65625 128.36913,67.716797 Z M 50.644531,88.851562 46.765625,94.25 50.644531,99.646484 54.521484,94.25 Z m 99.999999,0 -3.87891,5.398438 3.87891,5.396484 L 154.52148,94.25 Z M 100,90.265625 93.875,100 100,109.73438 106.125,100 Z m -72.396484,1.085937 c -0.294274,-0.01096 -0.519021,0.03737 -0.677735,0.103516 -0.317556,0.132284 -0.430865,0.29476 -0.474609,0.566406 -0.08734,0.543043 0.382945,1.943276 3.11914,2.892578 5.647086,1.959285 11.410381,3.216988 17.167969,3.634766 l -2.402343,-3.345703 c -5.250705,-0.444858 -10.522283,-1.594478 -15.642579,-3.601563 -0.432941,-0.169661 -0.795573,-0.23919 -1.089843,-0.25 z m 100.000004,0 c -0.29428,-0.01096 -0.51903,0.03737 -0.67774,0.103516 -0.31755,0.132284 -0.43086,0.29476 -0.47461,0.566406 -0.0873,0.543043 0.38295,1.943276 3.11914,2.892578 5.64709,1.959285 11.41038,3.216988 17.16797,3.634766 l -2.40234,-3.345703 c -5.25071,-0.444858 -10.52228,-1.594478 -15.64258,-3.601563 -0.43294,-0.169661 -0.79557,-0.23919 -1.08984,-0.25 z m -54.867192,0.02539 c -0.291968,0.0072 -0.683292,0.06909 -1.18164,0.242188 -4.547732,1.577661 -9.410303,2.737834 -14.425782,3.33789 l -2.609375,3.63086 c 5.474695,-0.352366 10.893879,-1.527925 16.146485,-3.650391 2.154962,-0.870762 2.906124,-2.410903 2.892578,-3.027344 -0.0072,-0.30822 -0.03869,-0.34748 -0.238282,-0.443359 -0.09993,-0.04781 -0.291989,-0.09687 -0.583984,-0.08984 z m 100.000002,0 c -0.29197,0.0072 -0.68329,0.06909 -1.18164,0.242188 -4.54773,1.577661 -9.41031,2.737834 -14.42578,3.33789 l -2.60938,3.63086 c 5.4747,-0.352366 10.89388,-1.527925 16.14649,-3.650391 2.15496,-0.870762 2.90612,-2.410903 2.89257,-3.027344 -0.007,-0.30822 -0.0387,-0.34748 -0.23828,-0.443359 -0.0999,-0.04781 -0.29199,-0.09687 -0.58398,-0.08984 z M 70.283203,97.800781 c -5.755423,2.149142 -11.681795,3.231589 -17.640625,3.402339 l -1.998047,2.78126 -2.015625,-2.80469 c -6.091948,-0.23626 -12.184411,-1.384813 -18.132812,-3.291018 -1.730691,3.860878 -2.566464,8.280178 -2.65625,12.654298 5.081022,2.36948 8.414927,5.39173 10.232422,8.75195 1.75127,3.23712 2.061469,6.73434 1.371093,10.0332 1.045452,0.67806 2.183788,1.23833 3.382813,1.6836 l 0.751953,-6.48633 2.513672,0.29102 -0.802735,6.92773 c 1.295985,0.29926 2.631286,0.47785 3.976563,0.53906 v -7.40234 h 2.53125 v 7.37891 c 1.341078,-0.0864 2.669482,-0.28838 3.949219,-0.60743 l -0.792969,-6.83593 2.513672,-0.29102 0.736328,6.3457 c 1.184538,-0.46341 2.302426,-1.03527 3.318359,-1.71875 -0.779758,-3.30605 -0.509988,-6.72646 1.220704,-9.88476 1.7984,-3.28182 5.106794,-6.23017 10.128906,-8.70703 -0.08394,-4.54015 -0.905136,-8.95333 -2.587891,-12.759769 z m 99.999997,0 c -5.75542,2.149142 -11.68179,3.231589 -17.64062,3.402339 l -1.99805,2.78126 -2.01562,-2.80469 c -6.09195,-0.23626 -12.18441,-1.384813 -18.13282,-3.291018 -1.73069,3.860878 -2.56646,8.280178 -2.65625,12.654298 5.08103,2.36948 8.41493,5.39173 10.23243,8.75195 1.75127,3.23712 2.06147,6.73434 1.37109,10.0332 1.04545,0.67806 2.18379,1.23833 3.38281,1.6836 l 0.75195,-6.48633 2.51368,0.29102 -0.80274,6.92773 c 1.29599,0.29926 2.6313,0.47785 3.97656,0.53906 v -7.40234 h 2.53126 v 7.37891 c 1.34106,-0.0864 2.66948,-0.28838 3.94921,-0.60743 l -0.79297,-6.83593 2.51368,-0.29102 0.73632,6.3457 c 1.18454,-0.46341 2.30243,-1.03527 3.31836,-1.71875 -0.77975,-3.30605 -0.50998,-6.72646 1.22071,-9.88476 1.7984,-3.28182 5.10679,-6.23017 10.1289,-8.70703 -0.0839,-4.54015 -0.90513,-8.95333 -2.58789,-12.759769 z M 34.162109,104.16602 c 4.685862,0.031 9.262329,1.65661 13.72461,4.99218 -6.311195,4.48883 -17.576173,4.65558 -14.664063,-4.97656 0.313512,-0.0121 0.627034,-0.0179 0.939453,-0.0156 z m 32.882813,0 c 0.312416,-0.002 0.626225,0.004 0.939453,0.0156 2.912383,9.63228 -8.354821,9.46525 -14.666016,4.97656 4.462148,-3.33543 9.040701,-4.96117 13.726563,-4.99218 z m 67.117188,0 c 4.68586,0.031 9.26233,1.65661 13.72461,4.99218 -6.3112,4.48883 -17.57617,4.65558 -14.66406,-4.97656 0.31351,-0.0121 0.62703,-0.0179 0.93945,-0.0156 z m 32.88281,0 c 0.31242,-0.002 0.62623,0.004 0.93946,0.0156 2.91237,9.63228 -8.35483,9.46525 -14.66602,4.97656 4.46215,-3.33543 9.0407,-4.96117 13.72656,-4.99218 z m -116.636717,6.76562 c 1.593914,2.94204 2.599451,5.884 3.435547,8.82617 h -6.871094 c 0.618875,-2.94217 1.864651,-5.88345 3.435547,-8.82617 z m 99.999997,0 c 1.59392,2.94204 2.59945,5.884 3.43555,8.82617 h -6.87109 c 0.61887,-2.94217 1.86465,-5.88345 3.43554,-8.82617 z M 7.5117188,117.7168 0.23632812,131.76562 0,131.30859 v 4.10157 L 0.64453125,134.51367 6.375,142.49023 c 4.984603,-0.55888 9.826388,-1.69245 14.349609,-3.26171 0.508373,-0.17632 0.997634,-0.29664 1.464844,-0.35352 l 0.207031,-21.1582 -10.267578,12.93945 z m 170.8554712,0 -0.0215,21.17187 c 0.41493,0.0687 0.84058,0.18859 1.27149,0.35742 4.94235,1.93735 10.04982,3.03781 15.14843,3.44922 L 200,135.41016 v -4.10157 l -7.03711,-13.59179 -4.80078,12.93945 -9.79297,-12.93945 z M 0.64453125,138.85156 0,139.74805 V 148.75 L 0.64453125,149.64648 4.5214844,144.25 Z M 200,139.74805 196.76562,144.25 200,148.75 Z m -22.39648,1.60351 c -0.29428,-0.011 -0.51903,0.0374 -0.67774,0.10352 -0.31755,0.13228 -0.43087,0.29476 -0.47461,0.5664 -0.0873,0.54305 0.38295,1.94328 3.11914,2.89258 5.64709,1.95929 11.41038,3.21699 17.16797,3.63477 l -2.40234,-3.34571 c -5.25071,-0.44484 -10.52228,-1.59447 -15.64258,-3.60156 -0.43295,-0.16966 -0.79557,-0.23919 -1.08984,-0.25 z m -154.867192,0.0254 c -0.291968,0.007 -0.683292,0.0691 -1.18164,0.24219 -4.547732,1.57766 -9.410303,2.73783 -14.4257818,3.33789 l -2.609375,3.63086 c 5.4746949,-0.35236 10.8938788,-1.52792 16.1464848,-3.65039 2.154962,-0.87076 2.906124,-2.4109 2.892578,-3.02734 -0.0072,-0.30822 -0.03869,-0.34748 -0.238282,-0.44336 -0.09993,-0.0478 -0.291989,-0.0969 -0.583984,-0.0899 z m -2.453125,6.42383 c -5.755423,2.14914 -11.6817954,3.23159 -17.6406249,3.40234 L 0.64453125,153.98438 0,153.08789 v 8.65234 c 0.13821765,-0.26955 0.26429664,-0.53901 0.40820312,-0.80859 1.59391368,2.94205 2.59945118,5.884 3.43554688,8.82617 H 0 v 5.12305 h 1.796875 v 7.37891 c 1.3410784,-0.0864 2.6694821,-0.28838 3.9492188,-0.60743 l -0.7929688,-6.83593 2.5136719,-0.29102 0.7363281,6.3457 c 1.184538,-0.46341 2.302426,-1.03527 3.318359,-1.71875 -0.779758,-3.30605 -0.509988,-6.72646 1.220704,-9.88476 1.7984,-3.28181 5.106794,-6.23017 10.128906,-8.70703 -0.08394,-4.54015 -0.905136,-8.95333 -2.587891,-12.75977 z m 160.212887,0.0879 c -1.73069,3.86088 -2.56646,8.28018 -2.65625,12.6543 5.08103,2.36948 8.41493,5.39173 10.23243,8.75195 1.75127,3.23712 2.06147,6.73434 1.37109,10.0332 1.04545,0.67806 2.18379,1.23833 3.38281,1.6836 l 0.75195,-6.48633 2.51368,0.29102 -0.80274,6.92773 c 1.29599,0.29926 2.6313,0.47785 3.97656,0.53906 v -7.40234 H 200 v -5.12305 h -3.02734 c 0.56217,-2.67264 1.65677,-5.34465 3.02734,-8.01758 v -8.65234 l -1.37109,-1.9082 c -6.09195,-0.23626 -12.18442,-1.38481 -18.13282,-3.29102 z m -163.451168,6.27735 c 0.312416,-0.002 0.626225,0.004 0.939453,0.0156 2.912383,9.63228 -8.3548208,9.46525 -14.6660156,4.97656 4.4621479,-3.33543 9.0407006,-4.96118 13.7265626,-4.99218 z m 167.117188,0 c 4.68586,0.031 9.26233,1.65661 13.72461,4.99218 -6.3112,4.48883 -17.57617,4.65558 -14.66406,-4.97656 0.31351,-0.0121 0.62703,-0.0179 0.93945,-0.0156 z m -155.794922,13.55078 -0.02148,21.17187 c 0.414932,0.0687 0.840573,0.18859 1.271485,0.35742 4.942351,1.93735 10.049809,3.03781 15.148437,3.44922 l 5.878906,-8.18164 5.730469,7.97656 c 4.984603,-0.55888 9.826388,-1.69245 14.349609,-3.26171 0.508373,-0.17632 0.997634,-0.29664 1.464844,-0.35352 l 0.207031,-21.1582 -10.267578,12.93945 -4.617187,-12.93945 -7.275391,14.04882 -7.273437,-14.04882 -4.800782,12.93945 -9.792968,-12.93945 z m 100.000002,0 -0.0215,21.17187 c 0.41493,0.0687 0.84058,0.18859 1.27149,0.35742 4.94235,1.93735 10.04982,3.03781 15.14843,3.44922 l 5.87891,-8.18164 5.73047,7.97656 c 4.9846,-0.55888 9.82639,-1.69245 14.34961,-3.26171 0.50837,-0.17632 0.99763,-0.29664 1.46484,-0.35352 l 0.20703,-21.1582 -10.26757,12.93945 -4.61719,-12.93945 -7.27539,14.04882 -7.27344,-14.04882 -4.80078,12.93945 -9.79297,-12.93945 z m -77.722659,21.13476 -3.878906,5.39844 3.878906,5.39648 3.876953,-5.39648 z m 99.999999,0 -3.87891,5.39844 3.87891,5.39648 3.87695,-5.39648 z M 100,190.26562 93.875,200 h 12.25 z m -72.396484,1.08594 c -0.294274,-0.011 -0.519021,0.0374 -0.677735,0.10352 -0.317556,0.13228 -0.430865,0.29476 -0.474609,0.5664 -0.08734,0.54305 0.382945,1.94328 3.11914,2.89258 5.647087,1.95929 11.410381,3.21699 17.167969,3.63477 l -2.402343,-3.34571 c -5.250705,-0.44484 -10.522283,-1.59447 -15.642579,-3.60156 -0.432941,-0.16966 -0.795573,-0.23919 -1.089843,-0.25 z m 100.000004,0 c -0.29428,-0.011 -0.51903,0.0374 -0.67774,0.10352 -0.31755,0.13228 -0.43086,0.29476 -0.47461,0.5664 -0.0873,0.54305 0.38295,1.94328 3.11914,2.89258 5.64709,1.95929 11.41038,3.21699 17.16797,3.63477 l -2.40234,-3.34571 c -5.25071,-0.44484 -10.52228,-1.59447 -15.64258,-3.60156 -0.43294,-0.16966 -0.79557,-0.23919 -1.08984,-0.25 z m -54.867192,0.0254 c -0.291968,0.007 -0.683292,0.0691 -1.18164,0.24219 -4.547732,1.57766 -9.410303,2.73783 -14.425782,3.33789 l -2.609375,3.63086 c 5.474695,-0.35236 10.893879,-1.52792 16.146485,-3.65039 2.154962,-0.87076 2.906124,-2.4109 2.892578,-3.02734 -0.0072,-0.30822 -0.03869,-0.34748 -0.238282,-0.44336 -0.09993,-0.0478 -0.291989,-0.0969 -0.583984,-0.0899 z m 100.000002,0 c -0.29197,0.007 -0.68329,0.0691 -1.18164,0.24219 -4.54773,1.57766 -9.41031,2.73783 -14.42578,3.33789 l -2.60938,3.63086 c 5.4747,-0.35236 10.89388,-1.52792 16.14649,-3.65039 2.15496,-0.87076 2.90612,-2.4109 2.89257,-3.02734 -0.007,-0.30822 -0.0387,-0.34748 -0.23828,-0.44336 -0.0999,-0.0478 -0.29199,-0.0969 -0.58398,-0.0899 z m -102.453127,6.42383 c -2.501735,0.93418 -5.036837,1.6554 -7.591797,2.19922 h 8.435547 c -0.254992,-0.75014 -0.529459,-1.48828 -0.84375,-2.19922 z m 99.999997,0 c -2.50173,0.93418 -5.03683,1.6554 -7.59179,2.19922 h 8.43554 c -0.25499,-0.75014 -0.52946,-1.48828 -0.84375,-2.19922 z m -139.787106,0.0879 C 30.18873,198.57435 29.919715,199.28248 29.667969,200 h 9.041015 c -2.758467,-0.53947 -5.500619,-1.24216 -8.21289,-2.11133 z m 99.999996,0 c -0.30736,0.68568 -0.57638,1.39381 -0.82812,2.11133 h 9.04101 c -2.75846,-0.53947 -5.50061,-1.24216 -8.21289,-2.11133 z"
       transform="scale(0.26458333)"
       sodipodi:nodetypes="cccccccccccccccccccccccccccccccccccccccccccccccsccccccccccccsccsccccsccsccccccccccccccccccccccccccccccccccccccccsccccccccccccccccccccccccscccccccccccccccccccccccccccccccccccccccccccccccccccccccccccccccccccccccccccsccccccscccccccsccccccccccccccccccccccccscccccccccccccccccccccccsccccccsccccccccccscccccccccccccccccccccccccccccccccccccccccccccccccccscccccccccccccccccccscccccccccccccccccccsccsccccccccccccccccccccccccccsccccccccccccccccccccccccccccccccccsccscccccscccccccsccccccccccccccccccccccccccccsccsscccc" />
  </g>
</svg>
