<?xml version="1.0" encoding="UTF-8" standalone="no"?>
<svg
   xmlns:dc="http://purl.org/dc/elements/1.1/"
   xmlns:cc="http://creativecommons.org/ns#"
   xmlns:rdf="http://www.w3.org/1999/02/22-rdf-syntax-ns#"
   xmlns:svg="http://www.w3.org/2000/svg"
   xmlns="http://www.w3.org/2000/svg"
   xmlns:sodipodi="http://sodipodi.sourceforge.net/DTD/sodipodi-0.dtd"
   xmlns:inkscape="http://www.inkscape.org/namespaces/inkscape"
   width="200"
   height="200"
   viewBox="0 0 52.91667 52.916667"
   version="1.1"
   id="svg8"
   inkscape:version="1.0.2 (e86c870879, 2021-01-15, custom)"
   sodipodi:docname="bg-spellbook.svg">
  <defs
     id="defs2" />
  <sodipodi:namedview
     id="base"
     pagecolor="#ffffff"
     bordercolor="#666666"
     borderopacity="1.0"
     inkscape:pageopacity="0.0"
     inkscape:pageshadow="2"
     inkscape:zoom="2"
     inkscape:cx="91.556704"
     inkscape:cy="91.778991"
     inkscape:document-units="mm"
     inkscape:current-layer="layer1"
     inkscape:document-rotation="0"
     showgrid="false"
     units="px"
     inkscape:snap-page="true"
     inkscape:window-width="1725"
     inkscape:window-height="1040"
     inkscape:window-x="26"
     inkscape:window-y="0"
     inkscape:window-maximized="0"
     showguides="true"
     inkscape:guide-bbox="true"
     inkscape:snap-object-midpoints="true"
     inkscape:snap-nodes="true"
     inkscape:snap-others="false"
     inkscape:object-nodes="false">
    <sodipodi:guide
       position="11.773958,52.916666"
       orientation="0,-1"
       id="guide857" />
    <sodipodi:guide
       position="52.916666,29.633333"
       orientation="1,0"
       id="guide859" />
    <sodipodi:guide
       position="0,52.916666"
       orientation="100,0"
       id="guide865" />
    <sodipodi:guide
       position="0,26.458332"
       orientation="0,100"
       id="guide867" />
    <sodipodi:guide
       position="26.458334,26.458332"
       orientation="-100,0"
       id="guide869" />
    <sodipodi:guide
       position="26.458334,52.916666"
       orientation="0,-100"
       id="guide871" />
    <sodipodi:guide
       position="26.458335,26.458333"
       orientation="50.000001,0"
       id="guide895" />
    <sodipodi:guide
       position="26.458334,39.687499"
       orientation="0,49.999998"
       id="guide897" />
    <sodipodi:guide
       position="39.6875,39.687499"
       orientation="-50.000001,0"
       id="guide899" />
    <sodipodi:guide
       position="39.6875,52.916666"
       orientation="0,-49.999998"
       id="guide901" />
    <sodipodi:guide
       position="0,13.229166"
       orientation="0,50.000001"
       id="guide905" />
    <sodipodi:guide
       position="13.229167,13.229166"
       orientation="-49.999998,0"
       id="guide907" />
    <sodipodi:guide
       position="13.229167,26.458332"
       orientation="0,-50.000001"
       id="guide909" />
    <sodipodi:guide
       position="20.112033,0"
       orientation="0,-1"
       id="guide1009" />
    <sodipodi:guide
       position="0,46.169792"
       orientation="1,0"
       id="guide1160" />
  </sodipodi:namedview>
  <metadata
     id="metadata5">
    <rdf:RDF>
      <cc:Work
         rdf:about="">
        <dc:format>image/svg+xml</dc:format>
        <dc:type
           rdf:resource="http://purl.org/dc/dcmitype/StillImage" />
        <dc:title></dc:title>
      </cc:Work>
    </rdf:RDF>
  </metadata>
  <g
     inkscape:label="Layer 1"
     inkscape:groupmode="layer"
     id="layer1">
    <path
       id="path1040-5"
       style="fill:#281a28;fill-opacity:1;stroke-width:0.135422"
       d="M 29.667969 0 C 28.502194 3.3226667 27.913684 6.9456745 27.839844 10.542969 C 32.920867 12.912445 36.254769 15.934699 38.072266 19.294922 C 39.823536 22.532042 40.133735 26.029248 39.443359 29.328125 C 40.488811 30.00618 41.627147 30.566453 42.826172 31.011719 L 43.578125 24.525391 L 46.091797 24.816406 L 45.289062 31.744141 C 46.585047 32.043404 47.920348 32.221994 49.265625 32.283203 L 49.265625 24.880859 L 51.796875 24.880859 L 51.796875 32.259766 C 53.137953 32.173366 54.466357 31.971389 55.746094 31.652344 L 54.953125 24.816406 L 57.466797 24.525391 L 58.203125 30.871094 C 59.387663 30.407678 60.505551 29.835822 61.521484 29.152344 C 60.741726 25.846293 61.011496 22.42588 62.742188 19.267578 C 64.540587 15.985761 67.848982 13.037411 72.871094 10.560547 C 72.802828 6.8683708 72.237222 3.2662059 71.126953 0 L 62.691406 0 C 59.368496 0.70727597 56.011257 1.1065863 52.642578 1.203125 L 50.644531 3.984375 L 48.628906 1.1796875 C 45.314682 1.0511551 42.000234 0.64366029 38.708984 0 L 29.667969 0 z M 93.875 0 L 100 9.734375 L 106.125 0 L 93.875 0 z M 129.66797 0 C 128.50219 3.3226667 127.91369 6.9456745 127.83984 10.542969 C 132.92087 12.912445 136.25477 15.934699 138.07227 19.294922 C 139.82354 22.532042 140.13374 26.029248 139.44336 29.328125 C 140.48881 30.00618 141.62715 30.566453 142.82617 31.011719 L 143.57812 24.525391 L 146.0918 24.816406 L 145.28906 31.744141 C 146.58505 32.043404 147.92037 32.221994 149.26562 32.283203 L 149.26562 24.880859 L 151.79688 24.880859 L 151.79688 32.259766 C 153.13793 32.173366 154.46636 31.971389 155.74609 31.652344 L 154.95312 24.816406 L 157.4668 24.525391 L 158.20312 30.871094 C 159.38766 30.407678 160.50555 29.835822 161.52148 29.152344 C 160.74173 25.846293 161.0115 22.42588 162.74219 19.267578 C 164.54059 15.985761 167.84898 13.037411 172.87109 10.560547 C 172.80283 6.8683708 172.23722 3.2662059 171.12695 0 L 162.69141 0 C 159.3685 0.70727597 156.01126 1.1065863 152.64258 1.203125 L 150.64453 3.984375 L 148.62891 1.1796875 C 145.31468 1.0511551 142.00023 0.64366029 138.70898 0 L 129.66797 0 z M 34.162109 4.1660156 C 38.847973 4.1970076 43.424438 5.8226342 47.886719 9.1582031 C 41.575524 13.647027 30.310545 13.813782 33.222656 4.1816406 C 33.536168 4.1695466 33.84969 4.1637476 34.162109 4.1660156 z M 67.044922 4.1660156 C 67.357338 4.1639356 67.671147 4.1699256 67.984375 4.1816406 C 70.896758 13.813918 59.629554 13.646891 53.318359 9.1582031 C 57.780507 5.8227665 62.35906 4.1970266 67.044922 4.1660156 z M 134.16211 4.1660156 C 138.84797 4.1970076 143.42444 5.8226342 147.88672 9.1582031 C 141.57552 13.647027 130.31055 13.813782 133.22266 4.1816406 C 133.53617 4.1695466 133.84969 4.1637476 134.16211 4.1660156 z M 167.04492 4.1660156 C 167.35734 4.1639356 167.67115 4.1699256 167.98438 4.1816406 C 170.89674 13.813918 159.62955 13.646891 153.31836 9.1582031 C 157.78051 5.8227665 162.35906 4.1970266 167.04492 4.1660156 z M 50.408203 10.931641 C 52.002117 13.873682 53.007654 16.815645 53.84375 19.757812 L 46.972656 19.757812 C 47.591531 16.815645 48.837307 13.874358 50.408203 10.931641 z M 150.4082 10.931641 C 152.00212 13.873682 153.00765 16.815645 153.84375 19.757812 L 146.97266 19.757812 C 147.59153 16.815645 148.83731 13.874358 150.4082 10.931641 z M 7.5117188 17.716797 L 0.23632812 31.765625 L 0 31.308594 L 0 35.410156 L 0.64453125 34.513672 L 6.375 42.490234 C 11.359603 41.931348 16.201388 40.797783 20.724609 39.228516 C 21.232982 39.052201 21.722243 38.931882 22.189453 38.875 L 22.396484 17.716797 L 12.128906 30.65625 L 7.5117188 17.716797 z M 78.367188 17.716797 L 78.345703 38.888672 C 78.760635 38.957342 79.186276 39.077262 79.617188 39.246094 C 84.559538 41.183442 89.666997 42.283902 94.765625 42.695312 L 100.64453 34.513672 L 106.375 42.490234 C 111.3596 41.931348 116.20139 40.797783 120.72461 39.228516 C 121.23298 39.052201 121.72224 38.931882 122.18945 38.875 L 122.39648 17.716797 L 112.12891 30.65625 L 107.51172 17.716797 L 100.23633 31.765625 L 92.962891 17.716797 L 88.162109 30.65625 L 78.369141 17.716797 L 78.367188 17.716797 z M 178.36719 17.716797 L 178.3457 38.888672 C 178.76063 38.957342 179.18628 39.077262 179.61719 39.246094 C 184.55954 41.183442 189.66702 42.283902 194.76562 42.695312 L 200 35.410156 L 200 31.308594 L 192.96289 17.716797 L 188.16211 30.65625 L 178.36914 17.716797 L 178.36719 17.716797 z M 0.64453125 38.851562 L 0 39.748047 L 0 48.75 L 0.64453125 49.646484 L 4.5214844 44.25 L 0.64453125 38.851562 z M 100.64453 38.851562 L 96.765625 44.25 L 100.64453 49.646484 L 104.52148 44.25 L 100.64453 38.851562 z M 200 39.748047 L 196.76562 44.25 L 200 48.75 L 200 39.748047 z M 77.603516 41.351562 C 77.309242 41.340603 77.084495 41.388932 76.925781 41.455078 C 76.608225 41.587362 76.494916 41.749838 76.451172 42.021484 C 76.363832 42.564527 76.834118 43.964761 79.570312 44.914062 C 85.217399 46.873347 90.980693 48.13105 96.738281 48.548828 L 94.335938 45.203125 C 89.085233 44.758267 83.813655 43.608647 78.693359 41.601562 C 78.260418 41.431902 77.897786 41.362372 77.603516 41.351562 z M 177.60352 41.351562 C 177.30924 41.340603 177.08449 41.388932 176.92578 41.455078 C 176.60823 41.587362 176.49491 41.749838 176.45117 42.021484 C 176.36387 42.564531 176.83412 43.964761 179.57031 44.914062 C 185.2174 46.873347 190.98069 48.13105 196.73828 48.548828 L 194.33594 45.203125 C 189.08523 44.758267 183.81366 43.608647 178.69336 41.601562 C 178.26041 41.431902 177.89779 41.362372 177.60352 41.351562 z M 22.736328 41.376953 C 22.44436 41.384153 22.053035 41.446043 21.554688 41.619141 C 17.006956 43.196802 12.144385 44.356971 7.1289062 44.957031 L 4.5195312 48.587891 C 9.9942261 48.235526 15.41341 47.059969 20.666016 44.9375 C 22.820978 44.066742 23.57214 42.526597 23.558594 41.910156 C 23.551394 41.601936 23.519904 41.562676 23.320312 41.466797 C 23.220383 41.418987 23.028323 41.369923 22.736328 41.376953 z M 122.73633 41.376953 C 122.44436 41.384153 122.05304 41.446043 121.55469 41.619141 C 117.00696 43.196802 112.14438 44.356975 107.12891 44.957031 L 104.51953 48.587891 C 109.99423 48.235525 115.41341 47.059966 120.66602 44.9375 C 122.82098 44.066738 123.57214 42.526597 123.55859 41.910156 C 123.55159 41.601936 123.51989 41.562676 123.32031 41.466797 C 123.22041 41.418987 123.02832 41.369923 122.73633 41.376953 z M 20.283203 47.800781 C 14.52778 49.949923 8.6014075 51.032358 2.6425781 51.203125 L 0.64453125 53.984375 L 0 53.087891 L 0 61.740234 C 0.13821765 61.47068 0.26429665 61.201217 0.40820312 60.931641 C 2.0021168 63.873685 3.0076543 66.815641 3.84375 69.757812 L 0 69.757812 L 0 74.880859 L 1.796875 74.880859 L 1.796875 82.259766 C 3.1379534 82.173366 4.4663571 81.971389 5.7460938 81.652344 L 4.953125 74.816406 L 7.4667969 74.525391 L 8.203125 80.871094 C 9.387663 80.407678 10.505551 79.835822 11.521484 79.152344 C 10.741726 75.846293 11.011496 72.42588 12.742188 69.267578 C 14.540587 65.985761 17.848982 63.037411 22.871094 60.560547 C 22.787154 56.020401 21.965958 51.607215 20.283203 47.800781 z M 120.2832 47.800781 C 114.52778 49.949923 108.60141 51.032358 102.64258 51.203125 L 100.64453 53.984375 L 98.628906 51.179688 C 92.536958 50.943429 86.444496 49.794877 80.496094 47.888672 C 78.765403 51.74955 77.92963 56.16885 77.839844 60.542969 C 82.920867 62.912445 86.25477 65.934699 88.072266 69.294922 C 89.823536 72.532042 90.133735 76.029248 89.443359 79.328125 C 90.488811 80.00618 91.627147 80.566453 92.826172 81.011719 L 93.578125 74.525391 L 96.091797 74.816406 L 95.289062 81.744141 C 96.585047 82.043404 97.920348 82.221994 99.265625 82.283203 L 99.265625 74.880859 L 101.79688 74.880859 L 101.79688 82.259766 C 103.13793 82.173366 104.46636 81.971389 105.74609 81.652344 L 104.95312 74.816406 L 107.4668 74.525391 L 108.20312 80.871094 C 109.38766 80.407678 110.50555 79.835822 111.52148 79.152344 C 110.74173 75.846293 111.0115 72.42588 112.74219 69.267578 C 114.54059 65.985761 117.84898 63.037411 122.87109 60.560547 C 122.78719 56.020401 121.96596 51.607215 120.2832 47.800781 z M 180.49609 47.888672 C 178.7654 51.74955 177.92963 56.16885 177.83984 60.542969 C 182.92087 62.912445 186.25477 65.934699 188.07227 69.294922 C 189.82354 72.532042 190.13374 76.029248 189.44336 79.328125 C 190.48881 80.00618 191.62715 80.566453 192.82617 81.011719 L 193.57812 74.525391 L 196.0918 74.816406 L 195.28906 81.744141 C 196.58505 82.043404 197.92037 82.221994 199.26562 82.283203 L 199.26562 74.880859 L 200 74.880859 L 200 69.757812 L 196.97266 69.757812 C 197.53483 67.085167 198.62943 64.413154 200 61.740234 L 200 53.087891 L 198.62891 51.179688 C 192.53696 50.943429 186.44449 49.794878 180.49609 47.888672 z M 17.044922 54.166016 C 17.357338 54.163916 17.671147 54.169911 17.984375 54.181641 C 20.896758 63.813922 9.6295541 63.646891 3.3183594 59.158203 C 7.7805072 55.822765 12.35906 54.197027 17.044922 54.166016 z M 84.162109 54.166016 C 88.847971 54.197006 93.424438 55.822634 97.886719 59.158203 C 91.575524 63.647027 80.310545 63.813782 83.222656 54.181641 C 83.536168 54.169541 83.84969 54.163756 84.162109 54.166016 z M 117.04492 54.166016 C 117.35734 54.163816 117.67115 54.169911 117.98438 54.181641 C 120.89674 63.813918 109.62955 63.646891 103.31836 59.158203 C 107.78051 55.822766 112.35906 54.197027 117.04492 54.166016 z M 184.16211 54.166016 C 188.84797 54.197006 193.42444 55.822634 197.88672 59.158203 C 191.57552 63.647031 180.31055 63.813782 183.22266 54.181641 C 183.53617 54.169541 183.84969 54.163756 184.16211 54.166016 z M 100.4082 60.931641 C 102.00212 63.873682 103.00765 66.815645 103.84375 69.757812 L 96.972656 69.757812 C 97.591531 66.815645 98.837313 63.874358 100.4082 60.931641 z M 28.367188 67.716797 L 28.345703 88.888672 C 28.760635 88.957342 29.186276 89.077262 29.617188 89.246094 C 34.559537 91.183442 39.666997 92.283902 44.765625 92.695312 L 50.644531 84.513672 L 56.375 92.490234 C 61.359603 91.931348 66.201388 90.797783 70.724609 89.228516 C 71.232982 89.052201 71.722243 88.931882 72.189453 88.875 L 72.396484 67.716797 L 62.128906 80.65625 L 57.511719 67.716797 L 50.236328 81.765625 L 42.962891 67.716797 L 38.162109 80.65625 L 28.369141 67.716797 L 28.367188 67.716797 z M 128.36719 67.716797 L 128.3457 88.888672 C 128.76063 88.957342 129.18628 89.077262 129.61719 89.246094 C 134.55954 91.183442 139.66702 92.283902 144.76562 92.695312 L 150.64453 84.513672 L 156.375 92.490234 C 161.3596 91.931348 166.20139 90.797783 170.72461 89.228516 C 171.23298 89.052201 171.72224 88.931882 172.18945 88.875 L 172.39648 67.716797 L 162.12891 80.65625 L 157.51172 67.716797 L 150.23633 81.765625 L 142.96289 67.716797 L 138.16211 80.65625 L 128.36914 67.716797 L 128.36719 67.716797 z M 50.644531 88.851562 L 46.765625 94.25 L 50.644531 99.646484 L 54.521484 94.25 L 50.644531 88.851562 z M 150.64453 88.851562 L 146.76562 94.25 L 150.64453 99.646484 L 154.52148 94.25 L 150.64453 88.851562 z M 100 90.265625 L 93.875 100 L 100 109.73438 L 106.125 100 L 100 90.265625 z M 27.603516 91.351562 C 27.309242 91.340603 27.084495 91.388932 26.925781 91.455078 C 26.608225 91.587362 26.494916 91.749838 26.451172 92.021484 C 26.363832 92.564527 26.834118 93.964761 29.570312 94.914062 C 35.217398 96.873347 40.980693 98.13105 46.738281 98.548828 L 44.335938 95.203125 C 39.085233 94.758267 33.813655 93.608647 28.693359 91.601562 C 28.260418 91.431902 27.897786 91.362372 27.603516 91.351562 z M 127.60352 91.351562 C 127.30924 91.340603 127.08449 91.388932 126.92578 91.455078 C 126.60823 91.587362 126.49492 91.749838 126.45117 92.021484 C 126.36387 92.564527 126.83412 93.964761 129.57031 94.914062 C 135.2174 96.873347 140.98069 98.13105 146.73828 98.548828 L 144.33594 95.203125 C 139.08523 94.758267 133.81366 93.608647 128.69336 91.601562 C 128.26042 91.431902 127.89779 91.362372 127.60352 91.351562 z M 72.736328 91.376953 C 72.44436 91.384153 72.053035 91.446043 71.554688 91.619141 C 67.006956 93.196802 62.144385 94.356975 57.128906 94.957031 L 54.519531 98.587891 C 59.994226 98.235525 65.41341 97.059966 70.666016 94.9375 C 72.820978 94.066738 73.57214 92.526597 73.558594 91.910156 C 73.551394 91.601936 73.519904 91.562676 73.320312 91.466797 C 73.220383 91.418987 73.028323 91.369923 72.736328 91.376953 z M 172.73633 91.376953 C 172.44436 91.384153 172.05304 91.446043 171.55469 91.619141 C 167.00696 93.196802 162.14438 94.356975 157.12891 94.957031 L 154.51953 98.587891 C 159.99423 98.235525 165.41341 97.059966 170.66602 94.9375 C 172.82098 94.066738 173.57214 92.526597 173.55859 91.910156 C 173.55159 91.601936 173.51989 91.562676 173.32031 91.466797 C 173.22041 91.418987 173.02832 91.369923 172.73633 91.376953 z M 109.72852 93.943359 C 111.80044 99.162808 111.79956 99.161868 108.86719 103.95117 C 114.08664 101.87925 114.08781 101.88029 118.87695 104.8125 C 116.80503 99.593052 116.80411 99.592035 119.73633 94.802734 C 114.51688 96.874811 114.51782 96.875732 109.72852 93.943359 z M 77.166016 96.679688 C 75.304829 99.996026 75.304808 99.995333 71.535156 100.49609 C 74.851491 102.35744 74.850802 102.3591 75.351562 106.12891 C 77.212749 102.81257 77.21277 102.81131 80.982422 102.31055 C 77.666087 100.44936 77.666777 100.4495 77.166016 96.679688 z M 70.283203 97.800781 C 64.52778 99.949923 58.601408 101.03238 52.642578 101.20312 L 50.644531 103.98438 L 48.628906 101.17969 C 42.536958 100.94343 36.444495 99.794877 30.496094 97.888672 C 28.765403 101.74955 27.92963 106.16885 27.839844 110.54297 C 32.920866 112.91245 36.254771 115.9347 38.072266 119.29492 C 39.823536 122.53204 40.133735 126.02927 39.443359 129.32812 C 40.488811 130.00618 41.627147 130.56645 42.826172 131.01172 L 43.578125 124.52539 L 46.091797 124.81641 L 45.289062 131.74414 C 46.585047 132.0434 47.920348 132.22199 49.265625 132.2832 L 49.265625 124.88086 L 51.796875 124.88086 L 51.796875 132.25977 C 53.137953 132.17337 54.466357 131.97139 55.746094 131.65234 L 54.953125 124.81641 L 57.466797 124.52539 L 58.203125 130.87109 C 59.387663 130.40768 60.505551 129.83582 61.521484 129.15234 C 60.741726 125.84629 61.011496 122.42588 62.742188 119.26758 C 64.540587 115.98576 67.848982 113.03741 72.871094 110.56055 C 72.787154 106.0204 71.965958 101.60722 70.283203 97.800781 z M 170.2832 97.800781 C 164.52778 99.949923 158.60141 101.03238 152.64258 101.20312 L 150.64453 103.98438 L 148.62891 101.17969 C 142.53696 100.94343 136.4445 99.794877 130.49609 97.888672 C 128.7654 101.74955 127.92963 106.16885 127.83984 110.54297 C 132.92087 112.91245 136.25477 115.9347 138.07227 119.29492 C 139.82354 122.53204 140.13374 126.02927 139.44336 129.32812 C 140.48881 130.00618 141.62715 130.56645 142.82617 131.01172 L 143.57812 124.52539 L 146.0918 124.81641 L 145.28906 131.74414 C 146.58505 132.0434 147.92037 132.22199 149.26562 132.2832 L 149.26562 124.88086 L 151.79688 124.88086 L 151.79688 132.25977 C 153.13793 132.17337 154.46636 131.97139 155.74609 131.65234 L 154.95312 124.81641 L 157.4668 124.52539 L 158.20312 130.87109 C 159.38766 130.40768 160.50555 129.83582 161.52148 129.15234 C 160.74173 125.84629 161.0115 122.42588 162.74219 119.26758 C 164.54059 115.98576 167.84898 113.03741 172.87109 110.56055 C 172.78719 106.0204 171.96596 101.60722 170.2832 97.800781 z M 34.162109 104.16602 C 38.847971 104.19702 43.424438 105.82263 47.886719 109.1582 C 41.575524 113.64703 30.310546 113.81378 33.222656 104.18164 C 33.536168 104.16954 33.84969 104.16372 34.162109 104.16602 z M 67.044922 104.16602 C 67.357338 104.16402 67.671147 104.17004 67.984375 104.18164 C 70.896758 113.81392 59.629554 113.64689 53.318359 109.1582 C 57.780507 105.82277 62.35906 104.19703 67.044922 104.16602 z M 134.16211 104.16602 C 138.84797 104.19702 143.42444 105.82263 147.88672 109.1582 C 141.57552 113.64703 130.31055 113.81378 133.22266 104.18164 C 133.53617 104.16954 133.84969 104.16372 134.16211 104.16602 z M 167.04492 104.16602 C 167.35734 104.16402 167.67115 104.17004 167.98438 104.18164 C 170.89674 113.81392 159.62955 113.64689 153.31836 109.1582 C 157.78051 105.82277 162.35906 104.19703 167.04492 104.16602 z M 89.232422 105.53516 C 89.082337 113.50887 89.082185 113.50952 82.613281 118.17383 C 90.586833 118.32357 90.587646 118.32422 95.251953 124.79297 C 95.401698 116.81926 95.400392 116.81861 101.86914 112.1543 C 93.895426 112.00455 93.896729 112.0039 89.232422 105.53516 z M 50.408203 110.93164 C 52.002117 113.87368 53.007654 116.81564 53.84375 119.75781 L 46.972656 119.75781 C 47.591531 116.81564 48.837307 113.87436 50.408203 110.93164 z M 150.4082 110.93164 C 152.00212 113.87368 153.00765 116.81564 153.84375 119.75781 L 146.97266 119.75781 C 147.59153 116.81564 148.83731 113.87436 150.4082 110.93164 z M 119.36523 114.34375 C 119.35805 118.14666 119.35721 118.14599 116.31055 120.42188 C 120.11346 120.42906 120.11474 120.42984 122.39062 123.47656 C 122.39781 119.67381 122.39664 119.67432 125.44336 117.39844 C 121.6406 117.39126 121.64112 117.39047 119.36523 114.34375 z M 7.5117188 117.7168 L 0.23632812 131.76562 L 0 131.30859 L 0 135.41016 L 0.64453125 134.51367 L 6.375 142.49023 C 11.359603 141.93135 16.201388 140.79778 20.724609 139.22852 C 21.232982 139.0522 21.722243 138.93188 22.189453 138.875 L 22.396484 117.7168 L 12.128906 130.65625 L 7.5117188 117.7168 z M 178.36719 117.7168 L 178.3457 138.88867 C 178.76063 138.95737 179.18628 139.07726 179.61719 139.24609 C 184.55954 141.18344 189.66702 142.2839 194.76562 142.69531 L 200 135.41016 L 200 131.30859 L 192.96289 117.7168 L 188.16211 130.65625 L 178.36914 117.7168 L 178.36719 117.7168 z M 90.603516 127.5625 A 14.369641 14.369641 0 0 0 90.349609 127.56641 C 90.16188 127.57019 89.977256 127.57573 89.798828 127.58594 C 86.8685 127.75367 83.199467 128.91382 77.591797 131.14258 L 71.332031 159.0293 C 83.7032 155.7612 92.290467 155.57489 98.283203 158.30078 L 98.283203 129.73047 C 95.434052 128.34136 93.2731 127.61968 90.921875 127.56641 A 14.369641 14.369641 0 0 0 90.603516 127.5625 z M 109.6875 129.36523 C 109.22788 129.36108 108.77191 129.36709 108.3457 129.38086 C 106.32659 129.44659 103.9901 129.73011 101.12109 130.09375 L 101.12109 158.01367 C 107.98784 156.78029 117.96151 157.35247 128.11133 159.20703 L 121.8418 131.27734 C 116.18259 129.95806 112.92203 129.39881 109.6875 129.36523 z M 110.04883 132.03711 C 113.02612 132.06924 115.85698 132.47316 118.51367 132.82812 L 119.21289 135.43359 C 115.46467 134.84252 108.81578 134.66048 104.63867 135.2793 L 104.53711 132.47266 C 106.42209 132.13314 108.26236 132.01788 110.04883 132.03711 z M 70.566406 132.77148 L 68.892578 140.02344 L 72.691406 140.02344 L 74.318359 132.77148 L 70.566406 132.77148 z M 125.08594 132.77148 L 131.34961 160.67578 L 131.70117 162.24805 L 135.26367 162.22266 L 128.82422 132.77148 L 125.08594 132.77148 z M 0.64453125 138.85156 L 0 139.74805 L 0 148.75 L 0.64453125 149.64648 L 4.5214844 144.25 L 0.64453125 138.85156 z M 200 139.74805 L 196.76562 144.25 L 200 148.75 L 200 139.74805 z M 177.60352 141.35156 C 177.30924 141.34056 177.08449 141.38896 176.92578 141.45508 C 176.60823 141.58736 176.49491 141.74984 176.45117 142.02148 C 176.36387 142.56453 176.83412 143.96476 179.57031 144.91406 C 185.2174 146.87335 190.98069 148.13105 196.73828 148.54883 L 194.33594 145.20312 C 189.08523 144.75829 183.81366 143.60865 178.69336 141.60156 C 178.26041 141.4319 177.89779 141.36237 177.60352 141.35156 z M 22.736328 141.37695 C 22.44436 141.38395 22.053035 141.44605 21.554688 141.61914 C 17.006956 143.1968 12.144385 144.35697 7.1289062 144.95703 L 4.5195312 148.58789 C 9.9942261 148.23553 15.41341 147.05997 20.666016 144.9375 C 22.820978 144.06674 23.57214 142.5266 23.558594 141.91016 C 23.551394 141.60194 23.519904 141.56268 23.320312 141.4668 C 23.220383 141.419 23.028323 141.36995 22.736328 141.37695 z M 112.65625 141.88477 C 115.3347 141.88892 117.96301 142.01061 120.40234 142.23633 L 120.95703 144.94336 C 115.81151 144.45789 109.51669 144.48799 104.72266 144.94336 L 104.61133 142.23633 C 107.24879 141.9947 109.97765 141.88083 112.65625 141.88477 z M 68.238281 142.85938 L 67.148438 147.58789 L 70.992188 147.58789 L 72.054688 142.85938 L 68.238281 142.85938 z M 111.49219 147.1543 C 112.22607 147.15772 112.9883 147.16703 113.8125 147.18555 L 114.21484 149.94336 C 111.06716 149.86913 106.78885 150.03212 104.80078 150.10938 L 104.69141 147.27344 C 107.33991 147.19573 109.29054 147.14451 111.49219 147.1543 z M 117.81445 147.22266 A 40.547902 40.547902 0 0 1 118.03125 147.22461 C 119.33446 147.23103 120.66186 147.27644 121.83203 147.23438 L 122.23828 150.03125 C 120.87439 149.98219 118.31947 149.89947 117.18555 149.95117 L 116.74219 147.23438 A 40.547902 40.547902 0 0 1 117.81445 147.22266 z M 20.283203 147.80078 C 14.52778 149.94992 8.6014075 151.03238 2.6425781 151.20312 L 0.64453125 153.98438 L 0 153.08789 L 0 161.74023 C 0.13821765 161.47068 0.26429665 161.20122 0.40820312 160.93164 C 2.0021168 163.87369 3.0076543 166.81564 3.84375 169.75781 L 0 169.75781 L 0 174.88086 L 1.796875 174.88086 L 1.796875 182.25977 C 3.1379534 182.17337 4.4663571 181.97139 5.7460938 181.65234 L 4.953125 174.81641 L 7.4667969 174.52539 L 8.203125 180.87109 C 9.387663 180.40768 10.505551 179.83582 11.521484 179.15234 C 10.741726 175.84629 11.011496 172.42588 12.742188 169.26758 C 14.540587 165.98577 17.848982 163.03741 22.871094 160.56055 C 22.787154 156.0204 21.965958 151.60722 20.283203 147.80078 z M 180.49609 147.88867 C 178.7654 151.74955 177.92963 156.16885 177.83984 160.54297 C 182.92087 162.91245 186.25477 165.9347 188.07227 169.29492 C 189.82354 172.53204 190.13374 176.02927 189.44336 179.32812 C 190.48881 180.00618 191.62715 180.56645 192.82617 181.01172 L 193.57812 174.52539 L 196.0918 174.81641 L 195.28906 181.74414 C 196.58505 182.0434 197.92037 182.22199 199.26562 182.2832 L 199.26562 174.88086 L 200 174.88086 L 200 169.75781 L 196.97266 169.75781 C 197.53483 167.08517 198.62943 164.41316 200 161.74023 L 200 153.08789 L 198.62891 151.17969 C 192.53696 150.94343 186.44449 149.79488 180.49609 147.88867 z M 66.494141 150.42578 L 63.658203 162.70898 L 67.605469 162.68164 L 70.355469 150.42578 L 66.494141 150.42578 z M 114.27734 152.29297 L 114.2793 152.29297 C 117.36923 152.29123 120.37246 152.41393 123.17578 152.69727 L 123.64844 155.97461 C 118.24126 155.30567 110.13086 154.76101 104.875 155.46289 L 104.85352 152.63867 C 108.00842 152.42136 111.18717 152.29461 114.27734 152.29297 z M 17.044922 154.16602 C 17.357338 154.16402 17.671147 154.17004 17.984375 154.18164 C 20.896758 163.81392 9.6295541 163.64689 3.3183594 159.1582 C 7.7805072 155.82277 12.35906 154.19702 17.044922 154.16602 z M 184.16211 154.16602 C 188.84797 154.19702 193.42444 155.82263 197.88672 159.1582 C 191.57552 163.64703 180.31055 163.81378 183.22266 154.18164 C 183.53617 154.16954 183.84969 154.16372 184.16211 154.16602 z M 88.017578 159.23633 C 83.271304 159.25069 77.311889 160.22016 69.826172 162.34961 L 68.689453 162.67383 L 98.283203 162.47461 L 98.283203 161.47266 C 95.724077 160.0216 92.385249 159.22341 88.017578 159.23633 z M 109.20312 160.20898 C 106.10903 160.21957 103.35474 160.43482 101.12109 160.86719 L 101.12109 162.45508 L 129.11328 162.26367 C 122.12723 160.90278 115.06236 160.18896 109.20312 160.20898 z M 63.449219 165.55664 L 63.449219 168.39453 L 71.859375 168.39453 L 62.128906 180.65625 L 57.511719 167.7168 L 50.236328 181.76562 L 42.962891 167.7168 L 38.162109 180.65625 L 28.369141 167.7168 L 28.367188 167.7168 L 28.345703 188.88867 C 28.760635 188.95737 29.186276 189.07726 29.617188 189.24609 C 34.559538 191.18344 39.666997 192.2839 44.765625 192.69531 L 50.644531 184.51367 L 56.375 192.49023 C 61.359603 191.93135 66.201388 190.79778 70.724609 189.22852 C 71.232982 189.0522 71.722243 188.93188 72.189453 188.875 L 72.390625 168.39453 L 128.36719 168.39453 L 128.3457 188.88867 C 128.76063 188.95737 129.18628 189.07726 129.61719 189.24609 C 134.55954 191.18344 139.66702 192.2839 144.76562 192.69531 L 150.64453 184.51367 L 156.375 192.49023 C 161.3596 191.93135 166.20139 190.79778 170.72461 189.22852 C 171.23298 189.0522 171.72224 188.93188 172.18945 188.875 L 172.39648 167.7168 L 162.12891 180.65625 L 157.51172 167.7168 L 150.23633 181.76562 L 142.96289 167.7168 L 138.16211 180.65625 L 128.88281 168.39453 L 135.95508 168.39453 L 135.95508 165.55664 L 63.449219 165.55664 z M 50.644531 188.85156 L 46.765625 194.25 L 50.644531 199.64648 L 54.521484 194.25 L 50.644531 188.85156 z M 150.64453 188.85156 L 146.76562 194.25 L 150.64453 199.64648 L 154.52148 194.25 L 150.64453 188.85156 z M 100 190.26562 L 93.875 200 L 106.125 200 L 100 190.26562 z M 27.603516 191.35156 C 27.309242 191.34056 27.084495 191.38896 26.925781 191.45508 C 26.608225 191.58736 26.494916 191.74984 26.451172 192.02148 C 26.363832 192.56453 26.834118 193.96476 29.570312 194.91406 C 35.217399 196.87335 40.980693 198.13105 46.738281 198.54883 L 44.335938 195.20312 C 39.085233 194.75829 33.813655 193.60865 28.693359 191.60156 C 28.260418 191.4319 27.897786 191.36237 27.603516 191.35156 z M 127.60352 191.35156 C 127.30924 191.34056 127.08449 191.38896 126.92578 191.45508 C 126.60823 191.58736 126.49492 191.74984 126.45117 192.02148 C 126.36387 192.56453 126.83412 193.96476 129.57031 194.91406 C 135.2174 196.87335 140.98069 198.13105 146.73828 198.54883 L 144.33594 195.20312 C 139.08523 194.75829 133.81366 193.60865 128.69336 191.60156 C 128.26042 191.4319 127.89779 191.36237 127.60352 191.35156 z M 72.736328 191.37695 C 72.44436 191.38395 72.053035 191.44605 71.554688 191.61914 C 67.006956 193.1968 62.144385 194.35697 57.128906 194.95703 L 54.519531 198.58789 C 59.994226 198.23553 65.41341 197.05997 70.666016 194.9375 C 72.820978 194.06674 73.57214 192.5266 73.558594 191.91016 C 73.551394 191.60194 73.519904 191.56268 73.320312 191.4668 C 73.220383 191.419 73.028323 191.36995 72.736328 191.37695 z M 172.73633 191.37695 C 172.44436 191.38395 172.05304 191.44605 171.55469 191.61914 C 167.00696 193.1968 162.14438 194.35697 157.12891 194.95703 L 154.51953 198.58789 C 159.99423 198.23553 165.41341 197.05997 170.66602 194.9375 C 172.82098 194.06674 173.57214 192.5266 173.55859 191.91016 C 173.55159 191.60194 173.51989 191.56268 173.32031 191.4668 C 173.22041 191.419 173.02832 191.36995 172.73633 191.37695 z M 70.283203 197.80078 C 67.781468 198.73496 65.246366 199.45618 62.691406 200 L 71.126953 200 C 70.871961 199.24986 70.597494 198.51172 70.283203 197.80078 z M 170.2832 197.80078 C 167.78147 198.73496 165.24637 199.45618 162.69141 200 L 171.12695 200 C 170.87196 199.24986 170.59749 198.51172 170.2832 197.80078 z M 30.496094 197.88867 C 30.18873 198.57433 29.919715 199.28248 29.667969 200 L 38.708984 200 C 35.950517 199.46053 33.208365 198.75784 30.496094 197.88867 z M 130.49609 197.88867 C 130.18873 198.57435 129.91971 199.28248 129.66797 200 L 138.70898 200 C 135.95052 199.46053 133.20837 198.75784 130.49609 197.88867 z "
       transform="scale(0.26458333)" />
  </g>
</svg>
