<?xml version="1.0" encoding="UTF-8" standalone="no"?>
<svg
   xmlns:dc="http://purl.org/dc/elements/1.1/"
   xmlns:cc="http://creativecommons.org/ns#"
   xmlns:rdf="http://www.w3.org/1999/02/22-rdf-syntax-ns#"
   xmlns:svg="http://www.w3.org/2000/svg"
   xmlns="http://www.w3.org/2000/svg"
   xmlns:sodipodi="http://sodipodi.sourceforge.net/DTD/sodipodi-0.dtd"
   xmlns:inkscape="http://www.inkscape.org/namespaces/inkscape"
   version="1.1"
   viewBox="0 0 512 512"
   id="svg6"
   sodipodi:docname="worker-skeleton.svg"
   inkscape:version="1.0.2 (e86c870879, 2021-01-15, custom)">
  <metadata
     id="metadata12">
    <rdf:RDF>
      <cc:Work
         rdf:about="">
        <dc:format>image/svg+xml</dc:format>
        <dc:type
           rdf:resource="http://purl.org/dc/dcmitype/StillImage" />
      </cc:Work>
    </rdf:RDF>
  </metadata>
  <defs
     id="defs10" />
  <sodipodi:namedview
     pagecolor="#ffffff"
     bordercolor="#666666"
     borderopacity="1"
     objecttolerance="10"
     gridtolerance="10"
     guidetolerance="10"
     inkscape:pageopacity="0"
     inkscape:pageshadow="2"
     inkscape:window-width="1920"
     inkscape:window-height="1017"
     id="namedview8"
     showgrid="false"
     inkscape:zoom="0.83007813"
     inkscape:cx="174.67522"
     inkscape:cy="399.68977"
     inkscape:window-x="-8"
     inkscape:window-y="-8"
     inkscape:window-maximized="1"
     inkscape:current-layer="svg6" />
  <path
     d="m257.2 0.341c-72.715 0-145.43 36.358-145.43 90.893 0 36.358 27.268 54.535 27.268 90.893 0 27.268-9.0894 27.268-9.0894 45.447 0 9.0882 29.092 19.392 54.535 27.267v36.358h145.43v-36.358s54.88-16.941 54.536-27.268c-0.56536-16.935-9.0894-18.179-9.0894-45.446 0-18.179 27.657-55.397 27.267-90.893 0-54.536-72.714-90.893-145.43-90.893zm-54.536 109.07c20.08 0 36.358 16.278 36.358 36.358s-16.278 36.358-36.358 36.358c-20.078-5.9e-4 -36.356-16.279-36.356-36.358 0-20.079 16.277-36.358 36.356-36.358zm109.07 0c20.079 0 36.358 16.278 36.358 36.358s-16.278 36.358-36.358 36.358c-20.079 0-36.358-16.278-36.358-36.358s16.278-36.358 36.358-36.358zm-54.535 63.626c9.0894 0 27.268 36.358 27.268 45.447 0 18.178 0 18.178-9.0894 18.178h-36.358c-9.0894 0-9.0894 0-9.0894-18.179 0-9.0894 18.179-45.446 27.268-45.446z"
     fill="#fff"
     stroke-width=".60596"
     id="path2"
     style="fill:#afafaf;fill-opacity:1" />
  <path
     d="m78.297 261.12a50.388 50.388 0 0 0-34.627 13.85l-29.146 27.688a11.351 11.351 0 0 0-3.4688 9.5l4.4531 39.984a50.348 50.348 0 0 0 4.3828 15.656 50.388 50.388 0 0 0 28.414 26.09l95.689 34.9a10.148 10.148 0 0 0 0.94336 0.29102l-118.94 40.426a15.813 15.813 0 1 0 10.176 29.939l182.61-62.061-6.6641-5.418a16.044 16.044 0 0 1-5.4941-16.166l1.9824-8.3574-53.129 18.057a10.148 10.148 0 0 0 1.5332-2.7637l1.668-4.5684a15.984 15.984 0 0 1-2.4805-1.125c-0.60073-0.34018-14.715-8.4517-30.344-19.562-22.758-16.167-36.566-29.95-42.229-42.125-4.6555-10.01-3.4157-17.952-1.5723-22.857 4.0158-10.626 14.181-17.465 30.225-20.326 9.2617-1.6532 21.119-2.1274 35.258-1.4258a400.8 400.8 0 0 1 45.514 5.1973 16.044 16.044 0 0 1 2.6445 0.74023l1.668-4.5703a10.148 10.148 0 0 0-6.0508-13.01l-95.66-34.928a50.388 50.388 0 0 0-17.35-3.0547zm359.41 14.912a50.388 50.388 0 0 0-15.822 2.6797l-96.428 32.811a10.148 10.148 0 0 0-6.3418 12.873l1.5645 4.6055a15.984 15.984 0 0 1 2.6387-0.67968c0.68127-0.11166 16.761-2.6415 35.902-3.7852 27.866-1.6745 47.266 0.40373 59.311 6.3379 9.903 4.8791 13.917 11.843 15.557 16.82 3.5341 10.796-0.09654 22.499-10.801 34.787-6.1785 7.095-15.12 14.897-26.574 23.215a400.8 400.8 0 0 1-24.385 16.141l-19.537-7.1328c11.935-6.7287 72.605-42.074 66.049-62.061-1.0314-3.1685-3.6568-5.5775-7.4082-7.4258-22.55-11.11-85.609-1.1074-85.609-1.1074 2.9434 8.5926 4.6638 22.118-7.1738 26.156l-45.719 15.537-76.111-27.789a12.675 12.675 0 0 1-7.5176-6.6543c-2.7487-5.9102-1.1503-13.886 0.94141-19.615 0 0-84.989-15.338-93.211 6.457-1.1832 3.115-0.6503 6.6397 1.1133 10.432 10.601 22.794 65.998 54.537 65.998 54.537 3.0946-8.5394 10.234-20.153 21.988-15.877l40.213 14.682-4.1738 17.539 14.295 11.604 36.094-12.268 5.0606 1.8477 8.1934-6.3516 22.145-7.5274a16.044 16.044 0 0 1-6.0039 15.244l-6.7832 5.2676 181.16 66.145a15.813 15.813 0 1 0 10.848-29.703l-87.113-31.807 66.264-22.52a50.388 50.388 0 0 0 33.723-40.998l5.3476-39.846a11.351 11.351 0 0 0-3.2559-9.5742l-28.539-28.357a50.348 50.348 0 0 0-13.23-9.4492 50.388 50.388 0 0 0-22.67-5.1895zm-104.49 122.93a12.675 12.675 0 0 1 5.4922 1.2852c4.9608 2.4441 8.4013 8.0049 10.533 13.162l-29.25-10.68 8.6875-2.9531a12.675 12.675 0 0 1 4.5371-0.81445z"
     fill="#fff"
     stroke-width=".8819"
     id="path4"
     style="fill:#afafaf;fill-opacity:1" />
</svg>
